# AST/ASF file generated using VICON BodyLanguage
# -----------------------------------------------
:version 1.10
:name VICON
:units
  mass 1.0
  length 0.45
  angle deg
:documentation
   .ast/.asf automatically generated from VICON data using
   VICON BodyBuilder and BodyLanguage model FoxedUp or BRILLIANT.MOD
:root
   order TX TY TZ RX RY RZ
   axis XYZ
   position 0 0 0  
   orientation 0 0 0 
:bonedata
  begin
     id 1 
     name lhipjoint
     direction 0.677091 -0.635792 0.370561 
     length 2.74323 
     axis 0 0 0  XYZ
  end
  begin
     id 2 
     name lfemur
     direction 0.34202 -0.939693 0  
     length 7.44995  
     axis 0 0 20  XYZ
    dof rx ry rz
    limits (-160.0 20.0)
           (-70.0 70.0)
           (-60.0 70.0)
  end
  begin
     id 3 
     name ltibia
     direction 0.34202 -0.939693 0   
     length 7.34467   
     axis 0 0 20   XYZ
    dof rx
    limits (-10.0 170.0)
  end
  begin
     id 4 
     name lfoot
     direction 0.101953 -0.280114 0.954537   
     length 1.72105   
     axis -90 7.62852e-016 20   XYZ
    dof rx rz
    limits (-45.0 90.0)
           (-70.0 20.0)
  end
  begin
     id 5 
     name ltoes
     direction 1.53537e-011 -4.21915e-011 1   
     length 0.865872   
     axis -90 7.62852e-016 20   XYZ
    dof rx
    limits (-90.0 20.0)
  end
  begin
     id 6 
     name rhipjoint
     direction -0.695735 -0.620586 0.361699   
     length 2.81045  
     axis 0 0 0  XYZ 
  end
  begin
     id 7 
     name rfemur
     direction -0.34202 -0.939693 0   
     length 7.29387   
     axis 0 0 -20   XYZ
    dof rx ry rz
    limits (-160.0 20.0)
           (-70.0 70.0)
           (-70.0 60.0)
  end
  begin
     id 8 
     name rtibia
     direction -0.34202 -0.939693 0   
     length 7.44935   
     axis 0 0 -20   XYZ
    dof rx
    limits (-10.0 170.0)
 end
 begin
     id 9 
     name rfoot
     direction -0.104163 -0.286184 0.952496   
     length 1.77731  
     axis -90 -7.62852e-016 -20   XYZ
    dof rx rz
    limits (-45.0 90.0)
           (-20.0 70.0)
  end
  begin
     id 10 
     name rtoes
     direction -1.5355e-011 -4.21888e-011 1   
     length 0.892424   
     axis -90 -7.62852e-016 -20   XYZ
    dof rx
    limits (-90.0 20.0)
  end
  begin
     id 11 
     name lowerback
     direction 0.0100202 0.997226 -0.0737589   
     length 2.16892   
     axis 0 0 0   XYZ
    dof rx ry rz
    limits (-20.0 45.0)
           (-30.0 30.0)
           (-30.0 30.0)
  end
  begin
     id 12 
     name upperback
     direction 0.00432398 0.999988 -0.00215019   
     length 2.17326   
     axis 0 0 0   XYZ
    dof rx ry rz
    limits (-20.0 45.0)
           (-30.0 30.0)
           (-30.0 30.0)
  end
  begin
     id 13 
     name thorax
     direction -0.00195047 0.999485 0.0320434   
     length 2.18139   
     axis 0 0 0   XYZ
    dof rx ry rz
    limits (-20.0 45.0)
           (-30.0 30.0)
           (-30.0 30.0)
  end
  begin
     id 14 
     name lowerneck
     direction 0.00782762 0.986241 0.165128   
     length 1.88415   
     axis 0 0 0   XYZ
    dof rx ry rz
    limits (-20.0 45.0)
           (-30.0 30.0)
           (-30.0 30.0)
  end
  begin
     id 15 
     name upperneck
     direction 0.00988667 0.981098 -0.193258   
     length 1.9242   
     axis 0 0 0   XYZ
    dof rx ry rz
    limits (-20.0 45.0)
           (-30.0 30.0)
           (-30.0 30.0)
  end
  begin
     id 16
     name head
     direction 0.00252199 0.996513 -0.0833958  
     length 1.93887  
     axis 0 0 0   XYZ
    dof rx ry rz
    limits (-20.0 45.0)
           (-30.0 30.0)
           (-30.0 30.0)
  end
  begin
     id 17 
     name lclavicle
     direction 0.929492 0.368193 -0.0218667  
     length 3.5955  
     axis 0 0 0   XYZ
    dof ry rz
    limits (-20.0 10.0)
           (0.0 20.0)
  end
  begin
     id 18 
     name lhumerus
     direction 1 -4.48972e-011 1.41911e-027   
     length 5.2795   
     axis 180 -30 -90   XYZ
    dof rx ry rz
    limits (-60.0 90.0)
           (-90.0 90.0)
           (-90.0 90.0)
  end
  begin
     id 19
     name lradius
     direction 1 -4.48963e-011 7.05772e-027   
     length 3.53504   
     axis 180 -30 -90   XYZ
    dof rx
    limits (-10.0 170.0)
  end
  begin
     id 20
     name lwrist
     direction 1 -4.48957e-011 9.54866e-027   
     length 1.76752   
     axis -7.69462e-015 90 90   XYZ
    dof ry
    limits (-180.0 0.0)
 end
  begin
     id 21 
     name lhand
     direction 1 -4.48979e-011 1.90973e-026   
     length 0.667948   
     axis -1.21857e-014 90 90   XYZ
    dof rx rz
    limits (-90.0 90.0)
           (-45.0 45.0)
  end
  begin
     id 22 
     name lfingers
     direction 1 -4.48987e-011 3.81946e-026   
     length 0.538517   
     axis -2.43714e-014 90 90   XYZ
    dof rx
    limits (0.0 90.0)
  end
  begin
     id 23
     name lthumb
     direction 0.707107 -6.34962e-011 0.707107   
     length 0.773206   
     axis -90 45 2.85299e-015   XYZ
    dof rx rz
    limits (-45.0 45.0)
           (-45.0 45.0)
  end
  begin
     id 24 
     name rclavicle
     direction -0.898763 0.414256 -0.143584   
     length 3.5176  
     axis 0 0 0   XYZ 
    dof ry rz
    limits (-10.0 20.0)
           (-20.0 0.0)
  end
  begin
     id 25 
     name rhumerus
     direction -1 -4.48971e-011 1.129e-027  
     length 5.25035   
     axis 180 30 90   XYZ
    dof rx ry rz
    limits (-90.0 60.0)
           (-90.0 90.0)
           (-90.0 90.0)
  end
  begin
     id 26 
     name rradius
     direction -1 -4.48955e-011 6.34664e-027   
     length 3.58884   
     axis 180 30 90   XYZ
    dof rx
    limits (-10.0 170.0)
  end
  begin
     id 27 
     name rwrist
     direction -1 -4.48966e-011 9.54866e-027   
     length 1.79442   
     axis -7.69462e-015 -90 -90   XYZ
    dof ry
    limits (-180.0 0.0)
  end
  begin
     id 28
     name rhand
     direction -1 -4.48973e-011 1.90973e-026   
     length 0.779235   
     axis -1.21857e-014 -90 -90   XYZ
    dof rx rz
    limits (-90.0 90.0)
           (-45.0 45.0)
  end
  begin
     id 29
     name rfingers
     direction -1 -4.48984e-011 3.81946e-026   
     length 0.62824   
     axis -2.43714e-014 -90 -90   XYZ
    dof rx
    limits (0.0 90.0)
  end
  begin
     id 30
     name rthumb
     direction -0.707107 -6.34968e-011 0.707107   
     length 0.90203   
     axis -90 -45 -2.85299e-015   XYZ
    dof rx rz
    limits (-45.0 45.0)
           (-45.0 45.0)
  end
:hierarchy
  begin
    root lhipjoint rhipjoint lowerback
    lhipjoint lfemur
    lfemur ltibia
    ltibia lfoot
    lfoot ltoes
    rhipjoint rfemur
    rfemur rtibia
    rtibia rfoot
    rfoot rtoes
    lowerback upperback
    upperback thorax
    thorax lowerneck lclavicle rclavicle
    lowerneck upperneck
    upperneck head
    lclavicle lhumerus
    lhumerus lradius
    lradius lwrist
    lwrist lhand lthumb
    lhand lfingers
    rclavicle rhumerus
    rhumerus rradius
    rradius rwrist
    rwrist rhand rthumb
    rhand rfingers
  end

#!OML:ASF I:\Random Stuff\random\construction\7_22_03\Session 2\subj1.ASF
:FULLY-SPECIFIED
:DEGREES
339
root -9.07569 17.7977 -5.12045 -390.409 84.8569 -402.725
lowerback 5.83342 1.6857 -5.71573
upperback 4.06887 2.2503 -5.54125
thorax 0.962489 1.18648 -2.63576
lowerneck -20.8067 3.00259 2.94024
upperneck 33.5646 4.60309 -0.915888
head 15.3574 2.42888 0.0489986
rclavicle -9.54166e-015 1.74931e-014
rhumerus 3.6966 51.3928 -66.7286
rradius 76.8614
rwrist 26.8372
rhand -19.1209 19.224
rfingers 7.12502
rthumb 7.18846 -10.634
lclavicle -9.54166e-015 1.74931e-014
lhumerus -2.65855 -39.6577 89.308
lradius 49.1548
lwrist 7.06951
lhand -27.0995 50.1674
lfingers 7.12502
lthumb -0.516171 80.1465
rfemur -11.002 9.63744 14.7872
rtibia -3.57812e-014
rfoot 1.22519 -9.05757
rtoes -25.0235
lfemur -21.3309 -3.07157 -10.7077
ltibia 24.4196
lfoot -11.5859 14.2631
ltoes -32.534
340
root -9.07528 17.7987 -5.12048 -390.074 84.932 -402.42
lowerback 5.83709 1.65969 -5.77188
upperback 4.02897 2.20872 -5.54207
thorax 0.916974 1.1652 -2.60405
lowerneck -20.7898 2.98472 2.91254
upperneck 33.599 4.63006 -1.01421
head 15.3729 2.4233 0.0179474
rclavicle -2.38542e-015 -7.63333e-014
rhumerus 4.02715 51.7508 -66.3984
rradius 76.822
rwrist 27.0228
rhand -19.0973 19.5829
rfingers 7.12502
rthumb 7.21121 -10.2743
lclavicle -2.38542e-015 -7.63333e-014
lhumerus -2.714 -39.6075 89.3442
lradius 49.1439
lwrist 7.01103
lhand -26.9254 50.2233
lfingers 7.12502
lthumb -0.348002 80.2028
rfemur -11.0184 9.58144 14.7097
rtibia -7.95139e-015
rfoot 1.21377 -9.05284
rtoes -24.9635
lfemur -21.345 -3.07415 -10.7933
ltibia 24.3591
lfoot -11.5105 14.2611
ltoes -32.7646
341
root -9.07492 17.7998 -5.1203 -389.625 85.0609 -401.963
lowerback 5.86794 1.61914 -5.85182
upperback 4.01157 2.14873 -5.57123
thorax 0.880455 1.13556 -2.5883
lowerneck -20.7928 2.9677 2.92323
upperneck 33.6281 4.63607 -1.09977
head 15.3907 2.41517 -0.01817
rclavicle 0 3.81667e-014
rhumerus 4.42679 52.0893 -66.0774
rradius 76.7299
rwrist 27.1199
rhand -19.0715 19.9431
rfingers 7.12502
rthumb 7.23615 -9.91319
lclavicle 0 3.81667e-014
lhumerus -2.7304 -39.6163 89.3191
lradius 49.0966
lwrist 6.98915
lhand -26.8123 50.2211
lfingers 7.12502
lthumb -0.238755 80.2007
rfemur -10.9825 9.48711 14.5958
rtibia -2.62396e-014
rfoot 1.20097 -9.03963
rtoes -25.0006
lfemur -21.3219 -3.10896 -10.9255
ltibia 24.293
lfoot -11.4687 14.2214
ltoes -32.7806
342
root -9.0737 17.7995 -5.11867 -389.681 85.17 -401.969
lowerback 5.93063 1.5741 -5.87503
upperback 4.00819 2.0839 -5.60749
thorax 0.842838 1.10493 -2.61198
lowerneck -20.8499 2.96327 2.97568
upperneck 33.6802 4.64605 -1.19211
head 15.4338 2.41221 -0.0623519
rclavicle 3.73715e-014 1.27222e-014
rhumerus 4.81066 52.3921 -65.8324
rradius 76.609
rwrist 27.1853
rhand -19.1393 20.196
rfingers 7.12502
rthumb 7.17072 -9.6625
lclavicle 3.73715e-014 1.27222e-014
lhumerus -2.77633 -39.6452 89.2818
lradius 49.072
lwrist 7.08805
lhand -26.8959 50.213
lfingers 7.12502
lthumb -0.319519 80.1925
rfemur -10.8961 9.3964 14.5456
rtibia 3.4191e-014
rfoot 1.18037 -9.03602
rtoes -24.9235
lfemur -21.2586 -3.13137 -11.0063
ltibia 24.2345
lfoot -11.448 14.1405
ltoes -32.8197
343
root -9.07388 17.7997 -5.11932 -390.007 85.2549 -402.3
lowerback 5.96161 1.51328 -5.84818
upperback 4.0008 2.00131 -5.62239
thorax 0.818942 1.06511 -2.63908
lowerneck -20.9659 2.98348 3.02759
upperneck 33.7275 4.71132 -1.34539
head 15.4921 2.42171 -0.12069
rclavicle -2.14687e-014 5.40694e-014
rhumerus 5.30322 52.7377 -65.428
rradius 76.5227
rwrist 27.3339
rhand -19.2958 20.2295
rfingers 7.12502
rthumb 7.01959 -9.6341
lclavicle -2.14687e-014 5.40694e-014
lhumerus -2.81802 -39.5359 89.2616
lradius 49.0846
lwrist 7.09958
lhand -26.8414 50.1599
lfingers 7.12502
lthumb -0.266937 80.1395
rfemur -10.8806 9.30733 14.5173
rtibia -1.19271e-014
rfoot 1.16515 -9.0388
rtoes -24.7895
lfemur -21.2747 -3.13964 -11.051
ltibia 24.1981
lfoot -11.4022 14.0706
ltoes -32.9548
